<svg xmlns="http://www.w3.org/2000/svg"  viewBox="0 0 64 64" width="96px" height="96px"><linearGradient id="Kh_O-xIkRQsv4Nuyn055da" x1="29.375" x2="29.375" y1="16.13" y2="53.081" gradientUnits="userSpaceOnUse"><stop offset="0" stop-color="#6dc7ff"/><stop offset="1" stop-color="#e6abff"/></linearGradient><polygon fill="url(#Kh_O-xIkRQsv4Nuyn055da)" points="35.5,15.5 17.75,36 31.25,41.75 31,44.25 21,49.5 32,56 41,51 41,26"/><linearGradient id="Kh_O-xIkRQsv4Nuyn055db" x1="25.297" x2="25.297" y1="5.826" y2="55.132" gradientUnits="userSpaceOnUse"><stop offset="0" stop-color="#1a6dff"/><stop offset="1" stop-color="#c822ff"/></linearGradient><path fill="url(#Kh_O-xIkRQsv4Nuyn055db)" d="M20.423,50.452l-0.847-1.812l12.013-5.616	l-15.996-7.109l0.812-1.828l18,8c0.358,0.159,0.59,0.513,0.594,0.904s-0.222,0.75-0.577,0.916L20.423,50.452z"/><linearGradient id="Kh_O-xIkRQsv4Nuyn055dc" x1="32" x2="32" y1="5.826" y2="55.132" gradientUnits="userSpaceOnUse"><stop offset="0" stop-color="#1a6dff"/><stop offset="1" stop-color="#c822ff"/></linearGradient><path fill="url(#Kh_O-xIkRQsv4Nuyn055dc)" d="M32,57c-0.171,0-0.342-0.044-0.496-0.132	l-21.001-12C10.191,44.69,9.999,44.358,9.999,44V20c0-0.358,0.192-0.69,0.504-0.868l21.001-12c0.308-0.176,0.685-0.176,0.992,0	l21.001,12c0.312,0.178,0.504,0.51,0.504,0.868v24c0,0.358-0.192,0.69-0.504,0.868l-21.001,12C32.342,56.956,32.171,57,32,57z M11.999,43.42L32,54.849L52.001,43.42V20.58L32,9.151L11.999,20.58V43.42z"/><linearGradient id="Kh_O-xIkRQsv4Nuyn055dd" x1="41" x2="41" y1="5.826" y2="55.132" gradientUnits="userSpaceOnUse"><stop offset="0" stop-color="#1a6dff"/><stop offset="1" stop-color="#c822ff"/></linearGradient><rect width="2" height="25" x="40" y="26" fill="url(#Kh_O-xIkRQsv4Nuyn055dd)"/><linearGradient id="Kh_O-xIkRQsv4Nuyn055de" x1="50.001" x2="50.001" y1="5.826" y2="55.132" gradientUnits="userSpaceOnUse"><stop offset="0" stop-color="#1a6dff"/><stop offset="1" stop-color="#c822ff"/></linearGradient><polygon fill="url(#Kh_O-xIkRQsv4Nuyn055de)" points="47.944,37.578 46.056,36.922 52.057,19.672 53.945,20.328"/><linearGradient id="Kh_O-xIkRQsv4Nuyn055df" x1="31.067" x2="31.067" y1="5.826" y2="55.132" gradientUnits="userSpaceOnUse"><stop offset="0" stop-color="#1a6dff"/><stop offset="1" stop-color="#c822ff"/></linearGradient><path fill="url(#Kh_O-xIkRQsv4Nuyn055df)" d="M50.364,45.714L35.401,17.148	L11.757,44.652c-0.338,0.393-0.919,0.462-1.341,0.16c-0.421-0.302-0.542-0.876-0.278-1.321l21.001-35.5	c0.186-0.312,0.535-0.48,0.887-0.491c0.363,0.01,0.692,0.215,0.86,0.536l19.25,36.75L50.364,45.714z M31.947,10.554L17.634,34.748	l16.769-19.506L31.947,10.554z"/><linearGradient id="Kh_O-xIkRQsv4Nuyn055dg" x1="23" x2="23" y1="5.826" y2="55.132" gradientUnits="userSpaceOnUse"><stop offset="0" stop-color="#1a6dff"/><stop offset="1" stop-color="#c822ff"/></linearGradient><rect width="22" height="2" x="12" y="42" fill="url(#Kh_O-xIkRQsv4Nuyn055dg)"/></svg>